# xmcd
#
# Track frame offsets:
#	150
#	10832
#	22772
#	29484
#	38170
#	49909
#	58438
#	68420
#	79472
#	89760
#	100310
#	110916
#	121233
#
# Disc length: 1754 seconds
#
# Revision: 0
# Processed by: cddbd v1.4PL0 Copyright (c) Steve Scherf et al.
# Submitted via: dBpowerAMP V4.0
#
DISCID=b106d80d
DTITLE=Waylon Jennings - The Gold Collection
DYEAR=1900
DGENRE=Country
TTITLE0=Sally Was A Good Old Girl
TTITLE1=Don't Think Twice, It's Alright
TTITLE2=It's So Easy
TTITLE3=Love's Gonna Live Here
TTITLE4=Crying
TTITLE5=Abilene
TTITLE6=When Sin Stops
TTITLE7=Big mamou
TTITLE8=White Lightning
TTITLE9=Burning Memories
TTITLE10=Dream Baby
TTITLE11=Money (That's What I Want)
TTITLE12=Lorena
EXTD=from Dave Legal
EXTT0=
EXTT1=
EXTT2=
EXTT3=
EXTT4=
EXTT5=
EXTT6=
EXTT7=
EXTT8=
EXTT9=
EXTT10=
EXTT11=
EXTT12=
PLAYORDER=
